<?xml version="1.0" encoding="UTF-8" standalone="no"?>
<!-- Created with Inkscape (http://www.inkscape.org/) -->

<svg
   width="1200"
   height="600"
   viewBox="0 0 317.49999 158.75"
   version="1.1"
   id="svg1275"
   inkscape:version="1.1 (c68e22c387, 2021-05-23)"
   sodipodi:docname="logo-cover.svg"
   inkscape:export-filename="C:\Users\endyjasmi\Desktop\logo-cover.png"
   inkscape:export-xdpi="96"
   inkscape:export-ydpi="96"
   xmlns:inkscape="http://www.inkscape.org/namespaces/inkscape"
   xmlns:sodipodi="http://sodipodi.sourceforge.net/DTD/sodipodi-0.dtd"
   xmlns="http://www.w3.org/2000/svg"
   xmlns:svg="http://www.w3.org/2000/svg">
  <sodipodi:namedview
     id="namedview1277"
     pagecolor="#505050"
     bordercolor="#ffffff"
     borderopacity="1"
     inkscape:pageshadow="0"
     inkscape:pageopacity="0"
     inkscape:pagecheckerboard="1"
     inkscape:document-units="px"
     showgrid="false"
     showguides="true"
     inkscape:guide-bbox="true"
     units="px"
     width="1200px"
     inkscape:zoom="0.70710678"
     inkscape:cx="597.50523"
     inkscape:cy="542.3509"
     inkscape:window-width="1920"
     inkscape:window-height="1009"
     inkscape:window-x="-8"
     inkscape:window-y="-8"
     inkscape:window-maximized="1"
     inkscape:current-layer="layer1" />
  <defs
     id="defs1272" />
  <g
     inkscape:label="Layer 1"
     inkscape:groupmode="layer"
     id="layer1">
    <rect
       style="fill:#9b111e;fill-opacity:1;stroke-width:0.288875"
       id="rect10073"
       width="317.5"
       height="158.75"
       x="5.6843419e-14"
       y="0.026458332" />
    <g
       id="g10013"
       transform="matrix(0.61548303,0,0,0.61548303,49.285313,-8.640837)"
       style="fill:#ffffff;fill-opacity:1">
      <g
         aria-label="MARUBASE"
         id="text2359"
         style="font-size:50.8px;line-height:1.25;fill:#ffffff;fill-opacity:1;stroke-width:0.264583"
         transform="translate(41.450243,16.21966)">
        <path
           d="M 20.365045,136.60558 H 10.889654 V 111.8753 L 4.0435604,127.92394 H -2.5296817 L -9.3757754,111.8753 v 24.73028 H -18.355072 V 99.671396 H -7.2921816 L 1.0173886,118.2005 9.3021541,99.671396 H 20.365045 Z"
           style="font-weight:bold;fill:#ffffff;fill-opacity:1"
           id="path9359" />
        <path
           d="m 63.922074,136.60558 h -9.84746 l -2.554883,-7.46622 H 37.827543 l -2.554882,7.46622 H 25.673247 L 39.315825,99.671396 h 10.963671 z m -14.709179,-14.23789 -4.539258,-13.24571 -4.539258,13.24571 z"
           style="font-weight:bold;fill:#ffffff;fill-opacity:1"
           id="path9361" />
        <path
           d="m 89.942192,110.98233 q 0,-1.38906 -0.570508,-2.38125 -0.570508,-0.99218 -1.95957,-1.56269 -0.967383,-0.39688 -2.257227,-0.47129 -1.289844,-0.0992 -3.001367,-0.0992 h -3.447852 v 9.94668 h 2.926954 q 2.282031,0 3.819921,-0.22324 1.537891,-0.22324 2.579688,-1.01699 0.992187,-0.76895 1.438672,-1.68672 0.471289,-0.94258 0.471289,-2.50528 z M 104.8002,136.60558 H 93.166801 L 83.096098,123.06222 h -4.39043 v 13.54336 h -9.47539 V 99.671396 h 15.974218 q 3.274219,0 5.630664,0.372074 2.356446,0.37207 4.415235,1.6123 2.083593,1.24024 3.299023,3.22461 1.240234,1.95957 1.240234,4.93613 0,4.09278 -1.90996,6.67246 -1.885157,2.57969 -5.407422,4.29122 z"
           style="font-weight:bold;fill:#ffffff;fill-opacity:1"
           id="path9363" />
        <path
           d="m 141.3127,123.23585 q 0,6.84609 -4.16718,10.49238 -4.16719,3.64629 -12.27832,3.64629 -8.11114,0 -12.27832,-3.64629 -4.14239,-3.64629 -4.14239,-10.46758 V 99.671396 h 9.57461 v 23.043554 q 0,3.84473 1.61231,5.72988 1.6123,1.88516 5.23379,1.88516 3.57187,0 5.20898,-1.81074 1.66191,-1.81074 1.66191,-5.8043 V 99.671396 h 9.57461 z"
           style="font-weight:bold;fill:#ffffff;fill-opacity:1"
           id="path9365" />
        <path
           d="m 181.81876,125.29464 q 0,2.6789 -1.0914,4.7873 -1.06661,2.1084 -2.95176,3.49746 -2.18281,1.63711 -4.81211,2.33164 -2.60449,0.69454 -6.62285,0.69454 H 150.21759 V 99.671396 h 14.33711 q 4.46484,0 6.52363,0.297657 2.0836,0.297657 4.11758,1.314647 2.1084,1.0666 3.12539,2.87734 1.0418,1.78594 1.0418,4.09278 0,2.6789 -1.41387,4.73769 -1.41387,2.03399 -3.99355,3.175 v 0.19844 q 3.62148,0.71934 5.72988,2.97656 2.1332,2.25723 2.1332,5.95313 z m -12.2039,-15.18047 q 0,-0.91777 -0.47129,-1.83555 -0.44649,-0.91777 -1.61231,-1.36425 -1.04179,-0.39688 -2.60449,-0.42168 -1.53789,-0.0496 -4.34082,-0.0496 h -0.89297 v 7.81347 h 1.48828 q 2.25723,0 3.84473,-0.0744 1.5875,-0.0744 2.50527,-0.4961 1.28985,-0.5705 1.68672,-1.46347 0.39688,-0.91778 0.39688,-2.1084 z m 2.33164,15.03164 q 0,-1.76113 -0.69454,-2.70371 -0.66972,-0.96738 -2.30683,-1.43867 -1.11621,-0.32246 -3.07578,-0.34727 -1.95957,-0.0248 -4.09278,-0.0248 h -2.08359 v 9.20254 h 0.69453 q 4.01836,0 5.75469,-0.0248 1.73633,-0.0248 3.1998,-0.64492 1.48829,-0.62012 2.03399,-1.63711 0.57051,-1.0418 0.57051,-2.38125 z"
           style="font-weight:bold;fill:#ffffff;fill-opacity:1"
           id="path9367" />
        <path
           d="m 223.04415,136.60558 h -9.84746 l -2.55488,-7.46622 h -13.69219 l -2.55488,7.46622 h -9.59942 L 198.4379,99.671396 h 10.96367 z m -14.70918,-14.23789 -4.53925,-13.24571 -4.53926,13.24571 z"
           style="font-weight:bold;fill:#ffffff;fill-opacity:1"
           id="path9369" />
        <path
           d="m 257.91954,124.99698 q 0,5.45703 -4.63847,8.88008 -4.61368,3.39824 -12.55118,3.39824 -4.58886,0 -8.01191,-0.79375 -3.39824,-0.81855 -6.3748,-2.05879 v -8.85527 h 1.04179 q 2.95176,2.35645 6.59805,3.62148 3.67109,1.26504 7.04453,1.26504 0.86817,0 2.28203,-0.14882 1.41387,-0.14883 2.30684,-0.4961 1.0914,-0.44648 1.78594,-1.11621 0.71933,-0.66973 0.71933,-1.98437 0,-1.21543 -1.0418,-2.0836 -1.01699,-0.89297 -3.00136,-1.36426 -2.0836,-0.49609 -4.41524,-0.91777 -2.30683,-0.44648 -4.34082,-1.11621 -4.66328,-1.51309 -6.72207,-4.09277 -2.03398,-2.6045 -2.03398,-6.44922 0,-5.15938 4.61367,-8.40879 4.63848,-3.27422 11.90625,-3.27422 3.64629,0 7.19336,0.719336 3.57187,0.694534 6.17637,1.761134 v 8.50801 h -1.017 q -2.23242,-1.78594 -5.48183,-2.97657 -3.22461,-1.21543 -6.59805,-1.21543 -1.19062,0 -2.38125,0.17364 -1.16582,0.14883 -2.25722,0.59531 -0.96739,0.37207 -1.66192,1.14102 -0.69453,0.74414 -0.69453,1.71152 0,1.46348 1.11621,2.25722 1.11621,0.76895 4.2168,1.41387 2.03398,0.42168 3.89433,0.81856 1.88516,0.39687 4.04317,1.0914 4.2416,1.38907 6.25078,3.79512 2.03398,2.38125 2.03398,6.20117 z"
           style="font-weight:bold;fill:#ffffff;fill-opacity:1"
           id="path9371" />
        <path
           d="M 291.15782,136.60558 H 264.44318 V 99.671396 h 26.71464 v 7.143754 h -17.23925 v 6.3748 h 15.99902 v 7.14375 h -15.99902 v 9.12813 h 17.23925 z"
           style="font-weight:bold;fill:#ffffff;fill-opacity:1"
           id="path9373" />
      </g>
      <rect
         style="fill:#ffffff;fill-opacity:1;stroke-width:1.55339"
         id="rect9712"
         width="309.51294"
         height="8.9792976"
         x="23.095228"
         y="161.8051" />
    </g>
  </g>
</svg>
