<?xml version="1.0" encoding="UTF-8" standalone="no"?>
<!-- Created with Inkscape (http://www.inkscape.org/) -->

<svg
   width="1200"
   height="600"
   viewBox="0 0 317.49999 158.75"
   version="1.1"
   id="svg5"
   inkscape:version="1.1 (c68e22c387, 2021-05-23)"
   sodipodi:docname="kofi-cover.svg"
   inkscape:export-filename="C:\Users\endyjasmi\Desktop\kofi-cover.png"
   inkscape:export-xdpi="96"
   inkscape:export-ydpi="96"
   xmlns:inkscape="http://www.inkscape.org/namespaces/inkscape"
   xmlns:sodipodi="http://sodipodi.sourceforge.net/DTD/sodipodi-0.dtd"
   xmlns:xlink="http://www.w3.org/1999/xlink"
   xmlns="http://www.w3.org/2000/svg"
   xmlns:svg="http://www.w3.org/2000/svg">
  <sodipodi:namedview
     id="namedview7"
     pagecolor="#505050"
     bordercolor="#ffffff"
     borderopacity="1"
     inkscape:pageshadow="0"
     inkscape:pageopacity="0"
     inkscape:pagecheckerboard="1"
     inkscape:document-units="px"
     showgrid="false"
     units="px"
     fit-margin-top="0"
     fit-margin-left="0"
     fit-margin-right="0"
     fit-margin-bottom="0"
     inkscape:zoom="0.73406285"
     inkscape:cx="573.52037"
     inkscape:cy="370.54048"
     inkscape:window-width="1277"
     inkscape:window-height="1000"
     inkscape:window-x="-7"
     inkscape:window-y="0"
     inkscape:window-maximized="0"
     inkscape:current-layer="layer1" />
  <defs
     id="defs2">
    <linearGradient
       inkscape:collect="always"
       id="linearGradient204">
      <stop
         style="stop-color:#ff8000;stop-opacity:1"
         offset="0"
         id="stop200" />
      <stop
         style="stop-color:#ff0000;stop-opacity:1"
         offset="1"
         id="stop202" />
    </linearGradient>
    <linearGradient
       inkscape:collect="always"
       xlink:href="#linearGradient204"
       id="linearGradient206"
       x1="187.06674"
       y1="0.36043689"
       x2="187.06674"
       y2="158.59222"
       gradientUnits="userSpaceOnUse"
       gradientTransform="scale(0.88489223,0.99999998)" />
  </defs>
  <g
     inkscape:label="Layer 1"
     inkscape:groupmode="layer"
     id="layer1">
    <rect
       style="fill:url(#linearGradient206);fill-opacity:1;stroke-width:0.264582"
       id="rect88"
       width="317.5"
       height="158.75"
       x="0"
       y="0" />
    <g
       id="g11307"
       transform="translate(28.724907,-10.922956)">
      <g
         inkscape:label="Layer 1"
         id="layer1-5"
         transform="matrix(0.25645132,0,0,0.25645132,79.200506,68.415634)"
         style="fill:#ffffff;stroke-width:3.89937">
        <g
           aria-label="MARUBASE"
           id="text2166"
           style="font-weight:bold;font-size:50.8px;line-height:1.25;-inkscape-font-specification:'sans-serif Bold';letter-spacing:0px;fill:#ffffff;stroke-width:1.03171">
          <path
             d="m 82.147828,72.874565 h -9.47539 V 48.144292 L 65.826344,64.192925 H 59.253102 L 52.407008,48.144292 V 72.874565 H 43.427711 V 35.940386 h 11.062891 l 8.30957,18.529101 8.284766,-18.529101 h 11.06289 z"
             id="path4336"
             style="fill:#ffffff;stroke-width:1.03171" />
          <path
             d="m 125.70486,72.874565 h -9.84746 l -2.55489,-7.466211 H 99.610327 l -2.554883,7.466211 H 87.45603 l 13.64258,-36.934179 h 10.96367 z m -14.70918,-14.23789 -4.53926,-13.245703 -4.53926,13.245703 z"
             id="path4338"
             style="fill:#ffffff;stroke-width:1.03171" />
          <path
             d="m 151.72498,47.251323 q 0,-1.389062 -0.57051,-2.38125 -0.57051,-0.992187 -1.95957,-1.562695 -0.96739,-0.396875 -2.25723,-0.471289 -1.28984,-0.09922 -3.00137,-0.09922 h -3.44785 v 9.94668 h 2.92696 q 2.28203,0 3.81992,-0.223242 1.53789,-0.223243 2.57968,-1.016993 0.99219,-0.768945 1.43868,-1.686718 0.47129,-0.942578 0.47129,-2.505273 z m 14.858,25.623242 h -11.6334 l -10.0707,-13.543359 h -4.39043 v 13.543359 h -9.47539 V 35.940386 h 15.97422 q 3.27422,0 5.63066,0.37207 2.35645,0.372071 4.41524,1.612305 2.08359,1.240234 3.29902,3.224609 1.24024,1.959571 1.24024,4.936133 0,4.092773 -1.90996,6.672461 -1.88516,2.579687 -5.40743,4.291211 z"
             id="path4340"
             style="fill:#ffffff;stroke-width:1.03171" />
          <path
             d="m 203.09549,59.504839 q 0,6.846093 -4.16719,10.492382 -4.16719,3.646289 -12.27832,3.646289 -8.11113,0 -12.27832,-3.646289 -4.14238,-3.646289 -4.14238,-10.467578 V 35.940386 h 9.57461 V 58.98394 q 0,3.844727 1.6123,5.729883 1.61231,1.885156 5.23379,1.885156 3.57187,0 5.20898,-1.810742 1.66192,-1.810742 1.66192,-5.804297 V 35.940386 h 9.57461 z"
             id="path4342"
             style="fill:#ffffff;stroke-width:1.03171" />
          <path
             d="m 243.60155,61.563628 q 0,2.678906 -1.09141,4.787304 -1.0666,2.108399 -2.95176,3.497461 -2.18281,1.63711 -4.81211,2.331641 -2.60449,0.694531 -6.62285,0.694531 H 212.00037 V 35.940386 h 14.33711 q 4.46485,0 6.52364,0.297656 2.08359,0.297656 4.11757,1.314649 2.1084,1.066601 3.12539,2.877343 1.0418,1.785938 1.0418,4.092774 0,2.678906 -1.41387,4.737695 -1.41386,2.033984 -3.99355,3.175 v 0.198437 q 3.62148,0.719336 5.72988,2.976563 2.13321,2.257226 2.13321,5.953125 z M 231.39764,46.383159 q 0,-0.917773 -0.47129,-1.835547 -0.44648,-0.917773 -1.6123,-1.364257 -1.0418,-0.396875 -2.6045,-0.42168 -1.53789,-0.04961 -4.34082,-0.04961 h -0.89297 v 7.813476 h 1.48829 q 2.25722,0 3.84472,-0.07441 1.5875,-0.07441 2.50528,-0.496094 1.28984,-0.570508 1.68671,-1.463476 0.39688,-0.917774 0.39688,-2.108399 z m 2.33164,15.031641 q 0,-1.761133 -0.69453,-2.703711 -0.66973,-0.967383 -2.30684,-1.438672 -1.11621,-0.322461 -3.07578,-0.347266 -1.95957,-0.0248 -4.09277,-0.0248 h -2.0836 v 9.202539 h 0.69454 q 4.01835,0 5.75468,-0.02481 1.73633,-0.02481 3.19981,-0.644922 1.48828,-0.620117 2.03398,-1.637109 0.57051,-1.041797 0.57051,-2.381249 z"
             id="path4344"
             style="fill:#ffffff;stroke-width:1.03171" />
          <path
             d="m 284.82694,72.874565 h -9.84747 l -2.55488,-7.466211 H 258.7324 l -2.55488,7.466211 h -9.59941 l 13.64258,-36.934179 h 10.96367 z m -14.70918,-14.23789 -4.53926,-13.245703 -4.53926,13.245703 z"
             id="path4346"
             style="fill:#ffffff;stroke-width:1.03171" />
          <path
             d="m 319.70233,61.265972 q 0,5.457031 -4.63848,8.880078 -4.61367,3.398242 -12.55117,3.398242 -4.58887,0 -8.01192,-0.79375 -3.39824,-0.818555 -6.3748,-2.058789 v -8.855274 h 1.0418 q 2.95175,2.356446 6.59804,3.621485 3.6711,1.265039 7.04453,1.265039 0.86817,0 2.28204,-0.148828 1.41386,-0.148829 2.30683,-0.496094 1.09141,-0.446485 1.78594,-1.116211 0.71934,-0.669727 0.71934,-1.984375 0,-1.21543 -1.0418,-2.083594 -1.01699,-0.892968 -3.00137,-1.364258 -2.08359,-0.496093 -4.41523,-0.917773 -2.30684,-0.446484 -4.34082,-1.116211 -4.66328,-1.513086 -6.72207,-4.092773 -2.03399,-2.604492 -2.03399,-6.449219 0,-5.159375 4.61367,-8.408789 4.63848,-3.274219 11.90625,-3.274219 3.64629,0 7.19336,0.719336 3.57188,0.694532 6.17637,1.761133 v 8.508008 h -1.01699 q -2.23242,-1.785938 -5.48184,-2.976563 -3.22461,-1.215429 -6.59804,-1.215429 -1.19063,0 -2.38125,0.173633 -1.16583,0.148828 -2.25723,0.595312 -0.96738,0.37207 -1.66192,1.141016 -0.69453,0.74414 -0.69453,1.711523 0,1.463477 1.11621,2.257227 1.11622,0.768945 4.2168,1.413867 2.03399,0.421679 3.89434,0.818554 1.88515,0.396875 4.04316,1.091407 4.2416,1.389062 6.25078,3.795117 2.03399,2.38125 2.03399,6.201172 z"
             id="path4348"
             style="fill:#ffffff;stroke-width:1.03171" />
          <path
             d="M 352.94061,72.874565 H 326.22596 V 35.940386 h 26.71465 v 7.14375 h -17.23926 v 6.374804 h 15.99902 v 7.14375 h -15.99902 v 9.128125 h 17.23926 z"
             id="path4350"
             style="fill:#ffffff;stroke-width:1.03171" />
        </g>
        <rect
           style="fill:#ffffff;stroke-width:1.03171"
           id="rect4582"
           width="309.51285"
           height="8.9792967"
           x="43.427677"
           y="81.853859" />
      </g>
      <text
         xml:space="preserve"
         style="font-weight:bold;font-size:6.35px;line-height:1.25;font-family:sans-serif;-inkscape-font-specification:'sans-serif Bold';letter-spacing:0px;stroke-width:0.264583"
         x="43.850506"
         y="101.85763"
         id="text2839"><tspan
           sodipodi:role="line"
           id="tspan2837"
           style="font-style:normal;font-variant:normal;font-weight:bold;font-stretch:normal;font-size:6.35px;font-family:sans-serif;-inkscape-font-specification:'sans-serif Bold';fill:#ffffff;stroke-width:0.264583"
           x="43.850506"
           y="101.85763">An open source document database for the web.</tspan></text>
    </g>
  </g>
</svg>
